<svg aria-hidden="true" style="position: absolute; width: 0; height: 0; overflow: hidden;" version="1.1" xmlns="http://www.w3.org/2000/svg" xmlns:xlink="http://www.w3.org/1999/xlink">
<defs>
<symbol id="icon-ph" viewBox="0 0 32 32">
<path d="M24.882 19.773l-3.268-0.373c-0.785-0.090-1.557 0.18-2.11 0.733l-2.367 2.367c-3.641-1.853-6.626-4.825-8.478-8.478l2.38-2.38c0.553-0.553 0.823-1.325 0.733-2.11l-0.373-3.242c-0.154-1.299-1.248-2.277-2.56-2.277h-2.226c-1.454 0-2.663 1.209-2.573 2.663 0.682 10.987 9.469 19.761 20.443 20.443 1.454 0.090 2.663-1.119 2.663-2.573v-2.226c0.013-1.3-0.965-2.393-2.264-2.547v0z"></path>
</symbol>
<symbol id="icon-auth" viewBox="0 0 32 32">
<path fill="#58bebf" style="fill: var(--color1, #58bebf)" opacity="0.2" d="M32 16c0 8.837-7.163 16-16 16s-16-7.163-16-16c0-8.837 7.163-16 16-16s16 7.163 16 16z"></path>
<path fill="#58bebf" style="fill: var(--color1, #58bebf)" d="M13.451 18.333c0-1.394 1.134-2.529 2.529-2.529s2.529 1.134 2.529 2.529c0 1.394-1.134 2.529-2.529 2.529s-2.529-1.134-2.529-2.529zM14.227 18.635l1.251 1.251 2.255-2.255-0.568-0.568-1.686 1.686-0.683-0.683-0.568 0.568z"></path>
<path fill="#58bebf" style="fill: var(--color1, #58bebf)" d="M18.549 10.708h-1.004c-0-0.864-0.701-1.565-1.565-1.565s-1.565 0.701-1.565 1.565h-1.004v2.006h5.138v-2.006h0z"></path>
<path fill="#58bebf" style="fill: var(--color1, #58bebf)" d="M19.353 13.517v-2.81h1.618v12.149h-9.981v-12.149h1.618v2.81h6.745zM12.648 18.333c0 1.837 1.495 3.332 3.332 3.332s3.332-1.495 3.332-3.332c0-1.837-1.495-3.332-3.332-3.332s-3.332 1.495-3.332 3.332z"></path>
</symbol>
<symbol id="icon-buyers" viewBox="0 0 32 32">
<path fill="#fff" style="fill: var(--color2, #fff)" d="M12.501 11.224l-1.389 1.259c0.984 1.226 2.317 2.241 3.951 2.566v1.902h1.875v-1.773c1.785-0.122 3.596-1.469 3.9-3.258 0.424-2.43-1.707-3.884-3.9-4.558v-3.683c0.947 0.098 2.014 0.857 2.785 1.518l1.163-1.471c-1.078-1.001-2.83-1.908-3.948-1.938v-1.785h-1.875v1.891c-1.474 0.316-2.685 1.486-2.882 2.922-0.179 2.061 0.784 3.084 2.882 3.813v4.486c-1.644-0.442-2.562-1.891-2.562-1.891zM14.035 5.092c0.082-0.549 0.459-0.996 1.028-1.235v2.738c-1.051-0.343-1.105-0.987-1.028-1.503zM16.938 13.292c1.17-0.169 2.054-0.944 2.054-1.702 0-1.529-1.832-2.146-2.037-2.216-0.008-0.003-0.014-0.005-0.017-0.006v3.923z"></path>
<path fill="#fff" style="fill: var(--color2, #fff)" d="M28.772 25.818v-3.432l0.415 0.249 0.965-1.608-6.621-3.972-6.621 3.972 0.965 1.608 0.415-0.249v3.432h-4.58v-3.432l0.415 0.249 0.965-1.608-6.621-3.972-6.621 3.972 0.965 1.608 0.415-0.249v3.432h-3.228v1.875h32v-1.875l-3.228-0zM9.406 25.818v-2.29h-1.875v2.29h-2.429v-4.557l3.366-2.020 3.366 2.020v4.557h-2.429zM24.469 23.528h-1.875v2.29h-2.429v-4.557l3.366-2.020 3.366 2.020v4.557h-2.429v-2.29z"></path>
<path fill="#fff" style="fill: var(--color2, #fff)" d="M0 30.122h32v1.875h-32v-1.875z"></path>
</symbol>
<symbol id="icon-entrep" viewBox="0 0 32 32">
<path fill="#f78434" style="fill: var(--color3, #f78434)" d="M32.229 16c0 8.837-7.163 16-16 16s-16-7.163-16-16c0-8.837 7.163-16 16-16s16 7.163 16 16z"></path>
<path fill="#fff" style="fill: var(--color2, #fff)" d="M18.171 9.143h3.086v3.429h-3.086v-3.429z"></path>
<path fill="#fff" style="fill: var(--color2, #fff)" d="M10.971 9.143h3.086v3.429h-3.086v-3.429z"></path>
<path fill="#fff" style="fill: var(--color2, #fff)" d="M18.171 18.743c0 0.947-0.844 1.714-1.886 1.714s-1.886-0.767-1.886-1.714c0-0.947 0.844-1.714 1.886-1.714s1.886 0.767 1.886 1.714z"></path>
<path fill="#fff" style="fill: var(--color2, #fff)" d="M12 18.914c0-2.178 1.842-3.943 4.114-3.943s4.114 1.765 4.114 3.943c0 2.178-1.842 3.943-4.114 3.943s-4.114-1.765-4.114-3.943zM13.437 18.914c0 1.415 1.201 2.566 2.677 2.566s2.677-1.151 2.677-2.566c0-1.415-1.201-2.566-2.677-2.566s-2.677 1.151-2.677 2.566z"></path>
<path fill="#fff" style="fill: var(--color2, #fff)" d="M14.33 14.35c0.354-0.156 0.721-0.265 1.098-0.326l-0.736-0.767h-3.035l1.647 1.714c0.315-0.251 0.658-0.459 1.027-0.621z"></path>
<path fill="#fff" style="fill: var(--color2, #fff)" d="M16.8 14.024c0.377 0.062 0.744 0.17 1.098 0.326 0.368 0.162 0.712 0.37 1.027 0.621l1.647-1.714h-3.035c-0.198 0.206-0.476 0.495-0.736 0.767z"></path>
</symbol>
<symbol id="icon-kindes" viewBox="0 0 32 32">
<path fill="#58bebf" style="fill: var(--color1, #58bebf)" opacity="0.2" d="M32 16c0 8.837-7.163 16-16 16s-16-7.163-16-16c0-8.837 7.163-16 16-16s16 7.163 16 16z"></path>
<path fill="#58bebf" style="fill: var(--color1, #58bebf)" d="M23.434 14.107h-3.375c-1.003 0-1.816 0.813-1.816 1.816v5.117c0 1.003 0.813 1.816 1.816 1.816h3.788l0.639-7.604c0.052-0.616-0.434-1.144-1.052-1.144z"></path>
<path fill="#58bebf" style="fill: var(--color1, #58bebf)" d="M16.427 9.145h-0.843l-0.326 4.035c-0.092 1.146-1.050 2.029-2.2 2.029h-0.633v6.541h2.145c0 0.016 0 0.031-0 0.047-0.001 0.584 0.472 1.057 1.056 1.057h2.309c-0.419-0.489-0.673-1.123-0.673-1.816v-5.117c0-0.849 0.381-1.61 0.98-2.123v-2.839c0-1.003-0.813-1.816-1.816-1.816v0z"></path>
<path fill="#58bebf" style="fill: var(--color1, #58bebf)" d="M7.771 14.554h3.676v7.853h-3.676v-7.853z"></path>
</symbol>
<symbol id="icon-perfomance" viewBox="0 0 32 32">
<path fill="#58bebf" style="fill: var(--color1, #58bebf)" opacity="0.2" d="M32 16c0 8.837-7.163 16-16 16s-16-7.163-16-16c0-8.837 7.163-16 16-16s16 7.163 16 16z"></path>
<path fill="#58bebf" style="fill: var(--color1, #58bebf)" d="M22.271 21.82v-9.555l1.362-1.352v1.732h1.045v-3.502h-3.528v1.037h1.745l-1.809 1.795-2.435-2.417-5.849 5.806-2.364-2.346-3.331 3.306 0.739 0.733 1.515-1.504v6.267h-2.459v1.037h17.829v-1.037l-2.459-0zM19.485 11.853v9.967h-2.277v-9.365l1.442-1.431 0.835 0.829zM12.801 16.83l-0.655-0.65v5.64h2.277v-6.6l-1.622 1.61z"></path>
</symbol>
<symbol id="icon-sale" viewBox="0 0 32 32">
<path fill="#f78434" style="fill: var(--color3, #f78434)" d="M20.173 4.333h11.827v16.938h-11.827v10.729h-8.347v-10.729h-11.827v-16.938h11.827v-1.829l4.173-2.504 4.173 2.504v1.829zM16 2.187l-2.298 1.379v0.767h4.597v-0.768l-2.298-1.379zM18.298 30.125h-4.597v-8.854h4.597v8.854zM1.875 19.396h28.25v-13.187h-28.25v13.187z"></path>
<path fill="#f78434" style="fill: var(--color3, #f78434)" d="M12.375 15.2l-0.688 1.808-1.752-0.667 2.911-7.644 1.557-0.002 2.887 7.649-1.754 0.662-0.681-1.806h-2.478zM13.090 13.325h1.056l-0.526-1.393-0.531 1.393z"></path>
<path fill="#f78434" style="fill: var(--color3, #f78434)" d="M22.063 14.862h-2.189v-6.247h-1.875v8.122h4.064v-1.875z"></path>
<path fill="#f78434" style="fill: var(--color3, #f78434)" d="M27.632 14.862h-2.61v-1.223h2.418v-1.875h-2.418v-1.223h2.61v-1.875h-4.485v8.070h4.485v-1.875z"></path>
<path fill="#f78434" style="fill: var(--color3, #f78434)" d="M6.593 10.545c0.707-0.313 1.769 0.449 2.338 0.961l1.163-1.471c-1.708-1.563-3.141-1.575-4.052-1.283-0.907 0.274-1.551 0.992-1.683 1.879-0.127 0.852 0.239 1.671 0.955 2.138 0.124 0.081 0.98 0.447 2.006 0.832 0.382 0.141 0.771 0.393 0.72 0.678-0.042 0.235-0.369 0.582-0.939 0.582-0.921 0.053-1.603-0.697-2.114-1.314l-1.389 1.259c0.858 1.098 2.023 1.96 3.503 1.929 1.393 0 2.564-0.895 2.785-2.128 0.167-0.934-0.249-2.151-1.917-2.766-0.741-0.273-1.432-0.57-1.672-0.675-0.169-0.212-0.105-0.459 0.296-0.622z"></path>
</symbol>
<symbol id="icon-logoipsum-logo-3" viewBox="0 0 121 32">
<path d="M40.987 23.044c-0.544 0.030-1.082-0.125-1.527-0.439-0.186-0.138-0.336-0.319-0.436-0.528s-0.148-0.439-0.14-0.67v-8.475c-0.004-0.036-0.001-0.072 0.011-0.107s0.031-0.065 0.057-0.091 0.057-0.045 0.091-0.057c0.034-0.012 0.071-0.016 0.106-0.011h1.536c0.174 0 0.256 0.091 0.256 0.265v7.817c0 0.347 0.155 0.521 0.475 0.521 0.136 0.006 0.271-0.010 0.402-0.046 0.183 0 0.283 0.055 0.293 0.219l0.137 1.143c0.007 0.033 0.006 0.068-0.002 0.101s-0.023 0.064-0.043 0.091c-0.021 0.027-0.047 0.049-0.077 0.065s-0.063 0.025-0.097 0.027c-0.336 0.111-0.688 0.17-1.042 0.174z"></path>
<path d="M49.627 22.066c-0.772 0.638-1.742 0.986-2.743 0.986s-1.971-0.349-2.743-0.986c-0.678-0.685-1.059-1.61-1.059-2.574s0.381-1.889 1.059-2.574c0.773-0.634 1.743-0.981 2.743-0.981s1.97 0.347 2.743 0.981c0.663 0.691 1.033 1.612 1.033 2.569s-0.37 1.878-1.033 2.569v0.009zM45.586 20.859c0.358 0.324 0.824 0.504 1.307 0.504s0.949-0.18 1.307-0.504c0.324-0.373 0.503-0.85 0.503-1.344s-0.178-0.971-0.503-1.344c-0.358-0.324-0.824-0.504-1.307-0.504s-0.949 0.18-1.307 0.504c-0.324 0.373-0.503 0.85-0.503 1.344s0.179 0.971 0.503 1.344z"></path>
<path d="M59.118 16.169c0.174 0 0.256 0.091 0.256 0.265v6.555c0.016 0.442-0.067 0.883-0.242 1.289s-0.439 0.769-0.772 1.060c-0.739 0.63-1.69 0.957-2.661 0.914-0.877 0.031-1.742-0.209-2.478-0.686-0.314-0.206-0.583-0.475-0.789-0.79s-0.345-0.668-0.409-1.039c0-0.183 0-0.265 0.247-0.265h1.536c0.065 0.002 0.128 0.023 0.182 0.061s0.095 0.089 0.12 0.15c0.1 0.278 0.298 0.509 0.558 0.649 0.316 0.163 0.668 0.245 1.024 0.238 0.215 0.012 0.43-0.019 0.632-0.092s0.389-0.184 0.547-0.329c0.145-0.152 0.258-0.331 0.332-0.527s0.107-0.406 0.098-0.615v-0.576c-0.55 0.404-1.219 0.614-1.902 0.594-0.478 0.017-0.954-0.062-1.4-0.233s-0.853-0.431-1.197-0.763c-0.659-0.682-1.028-1.593-1.028-2.542s0.368-1.86 1.028-2.542c0.345-0.329 0.753-0.587 1.198-0.756s0.921-0.248 1.398-0.231c0.702-0.019 1.39 0.204 1.947 0.631v-0.146c-0.004-0.035-0.001-0.071 0.011-0.104s0.030-0.064 0.054-0.089 0.054-0.045 0.087-0.057c0.033-0.012 0.068-0.017 0.104-0.014l1.518-0.009zM55.57 21.399c0.236 0.007 0.47-0.037 0.686-0.13s0.41-0.233 0.566-0.409c0.304-0.392 0.469-0.875 0.469-1.371s-0.165-0.979-0.469-1.371c-0.156-0.174-0.348-0.311-0.563-0.403s-0.447-0.135-0.681-0.127c-0.238-0.008-0.475 0.037-0.695 0.13s-0.416 0.233-0.576 0.409c-0.337 0.375-0.514 0.867-0.494 1.371-0.016 0.499 0.157 0.986 0.485 1.362 0.161 0.176 0.357 0.316 0.577 0.409s0.456 0.138 0.694 0.131z"></path>
<path d="M67.264 22.066c-0.773 0.634-1.743 0.981-2.743 0.981s-1.97-0.347-2.743-0.981c-0.663-0.693-1.034-1.615-1.034-2.574s0.37-1.881 1.034-2.574c0.774-0.633 1.743-0.978 2.743-0.978s1.969 0.346 2.743 0.978c0.663 0.691 1.033 1.612 1.033 2.569s-0.37 1.878-1.033 2.569v0.009zM63.214 20.859c0.175 0.167 0.382 0.297 0.608 0.383s0.467 0.127 0.709 0.119c0.24 0.006 0.479-0.035 0.704-0.121s0.429-0.216 0.604-0.382c0.319-0.375 0.494-0.852 0.494-1.344s-0.175-0.969-0.494-1.344c-0.174-0.166-0.379-0.295-0.604-0.382s-0.464-0.128-0.704-0.121c-0.242-0.007-0.483 0.033-0.709 0.119s-0.433 0.217-0.608 0.383c-0.319 0.375-0.494 0.852-0.494 1.344s0.175 0.969 0.494 1.344z"></path>
<path d="M71.598 14.615c-0.242 0.212-0.552 0.328-0.873 0.328s-0.631-0.117-0.873-0.328c-0.11-0.103-0.197-0.228-0.257-0.366s-0.090-0.287-0.090-0.438 0.031-0.3 0.090-0.438c0.060-0.138 0.147-0.263 0.257-0.366 0.244-0.206 0.553-0.319 0.873-0.319s0.629 0.113 0.873 0.319c0.11 0.103 0.197 0.228 0.257 0.366s0.090 0.287 0.090 0.438-0.031 0.3-0.090 0.438c-0.060 0.138-0.147 0.263-0.257 0.366zM71.79 23.044c-0.543 0.027-1.080-0.128-1.527-0.439-0.183-0.14-0.33-0.322-0.429-0.53s-0.146-0.437-0.138-0.668v-4.974c-0.004-0.036-0.001-0.072 0.011-0.107s0.031-0.065 0.057-0.091 0.057-0.045 0.091-0.057c0.034-0.012 0.071-0.016 0.106-0.011h1.536c0.174 0 0.256 0.091 0.256 0.265v4.315c0 0.347 0.155 0.521 0.466 0.521 0.139 0.005 0.277-0.010 0.411-0.046 0.183 0 0.283 0.055 0.293 0.219l0.137 1.143c0.007 0.033 0.006 0.068-0.002 0.101s-0.023 0.064-0.043 0.091c-0.021 0.027-0.047 0.049-0.077 0.065s-0.063 0.025-0.097 0.027c-0.339 0.112-0.694 0.17-1.051 0.174z"></path>
<path d="M78.711 15.949c0.48-0.019 0.958 0.059 1.408 0.228s0.86 0.428 1.207 0.759c0.647 0.694 1.006 1.607 1.006 2.555s-0.359 1.862-1.006 2.555c-0.346 0.334-0.756 0.595-1.205 0.766s-0.929 0.25-1.41 0.23c-0.685 0.015-1.356-0.193-1.911-0.594v3.301c0 0.174-0.091 0.256-0.265 0.256h-1.536c-0.035 0.007-0.071 0.004-0.105-0.006s-0.065-0.029-0.090-0.055c-0.025-0.025-0.044-0.056-0.054-0.090s-0.013-0.070-0.006-0.105v-7.497c0.011-0.073 0.004-0.148-0.019-0.218s-0.063-0.134-0.115-0.187-0.116-0.092-0.187-0.115c-0.070-0.023-0.145-0.030-0.219-0.019h-0.302c-0.201 0-0.302-0.073-0.302-0.219v-1.079c-0.005-0.067 0.014-0.133 0.052-0.188s0.094-0.095 0.158-0.114c0.316-0.115 0.651-0.171 0.987-0.165 0.336-0.030 0.672 0.041 0.967 0.204s0.534 0.41 0.688 0.71c0.294-0.298 0.647-0.533 1.035-0.69s0.805-0.234 1.223-0.224zM77.285 20.859c0.163 0.17 0.359 0.306 0.576 0.399s0.45 0.14 0.686 0.14c0.236 0 0.469-0.048 0.686-0.14s0.413-0.228 0.576-0.399c0.343-0.383 0.524-0.885 0.503-1.399 0.024-0.514-0.157-1.017-0.503-1.399-0.163-0.17-0.359-0.306-0.576-0.399s-0.45-0.14-0.686-0.14-0.469 0.048-0.686 0.14c-0.217 0.093-0.413 0.228-0.576 0.399-0.333 0.388-0.506 0.888-0.485 1.399-0.019 0.51 0.154 1.009 0.485 1.399z"></path>
<path d="M86.647 23.044c-0.821 0.034-1.635-0.163-2.35-0.567-0.287-0.173-0.531-0.408-0.715-0.688s-0.302-0.598-0.346-0.93c0-0.183 0.064-0.274 0.265-0.274h1.344c0.064 0.003 0.126 0.023 0.179 0.058s0.096 0.085 0.123 0.143c0.192 0.494 0.695 0.741 1.499 0.741 0.281 0.013 0.56-0.044 0.814-0.165 0.088-0.040 0.163-0.102 0.217-0.181s0.087-0.171 0.093-0.267c0-0.238-0.146-0.402-0.439-0.512-0.347-0.115-0.706-0.192-1.070-0.229-0.431-0.049-0.859-0.125-1.28-0.229-0.41-0.093-0.782-0.306-1.070-0.613-0.169-0.208-0.294-0.449-0.366-0.708s-0.090-0.529-0.053-0.795c0.037-0.266 0.128-0.521 0.268-0.75s0.325-0.427 0.545-0.581c0.659-0.42 1.432-0.624 2.213-0.585 0.756-0.025 1.503 0.161 2.158 0.539 0.264 0.149 0.491 0.356 0.665 0.604s0.29 0.532 0.341 0.831c0 0.183-0.082 0.274-0.247 0.274h-1.353c-0.057 0.003-0.114-0.011-0.163-0.040s-0.088-0.073-0.112-0.125c-0.090-0.216-0.261-0.39-0.475-0.485-0.242-0.127-0.513-0.19-0.786-0.183-0.268-0.015-0.535 0.039-0.777 0.155-0.085 0.033-0.159 0.090-0.211 0.166s-0.081 0.164-0.082 0.255c0.006 0.125 0.052 0.245 0.131 0.342s0.187 0.166 0.308 0.197c0.351 0.132 0.716 0.224 1.088 0.274 0.428 0.056 0.852 0.136 1.271 0.238 0.41 0.093 0.782 0.306 1.070 0.613 0.154 0.169 0.272 0.366 0.349 0.581s0.11 0.443 0.099 0.671c0.008 0.316-0.066 0.629-0.215 0.908s-0.368 0.514-0.635 0.683c-0.683 0.439-1.484 0.659-2.295 0.631z"></path>
<path d="M99.456 22.587c0.005 0.032 0.004 0.066-0.004 0.098s-0.022 0.062-0.042 0.088c-0.019 0.026-0.044 0.049-0.072 0.065s-0.059 0.028-0.092 0.032c-0.334 0.109-0.682 0.168-1.033 0.174-0.347 0.036-0.698-0.018-1.019-0.158s-0.6-0.359-0.81-0.638c-0.645 0.555-1.481 0.84-2.331 0.795-0.395 0.018-0.789-0.046-1.157-0.19s-0.703-0.362-0.982-0.642c-0.277-0.294-0.492-0.64-0.632-1.019s-0.202-0.782-0.182-1.185v-3.575c0-0.174 0.082-0.265 0.256-0.265h1.536c0.174 0 0.256 0.091 0.256 0.265v3.301c-0.016 0.411 0.123 0.813 0.393 1.125 0.134 0.143 0.298 0.255 0.479 0.329s0.377 0.109 0.572 0.101c0.2 0.009 0.4-0.022 0.589-0.091s0.361-0.175 0.508-0.311c0.139-0.144 0.248-0.314 0.318-0.501s0.102-0.387 0.093-0.587v-3.365c0-0.174 0.082-0.265 0.256-0.265h1.554c0.174 0 0.256 0.091 0.256 0.265v4.306c0 0.357 0.155 0.53 0.457 0.53 0.142 0.006 0.283-0.010 0.421-0.046 0.035-0.010 0.071-0.011 0.106-0.005s0.069 0.021 0.098 0.042 0.053 0.049 0.070 0.080c0.016 0.032 0.026 0.067 0.027 0.103l0.11 1.143z"></path>
<path d="M113.984 22.587c0.008 0.033 0.009 0.067 0.003 0.1s-0.021 0.064-0.041 0.091-0.046 0.049-0.076 0.065c-0.029 0.016-0.062 0.025-0.096 0.027-0.34 0.111-0.694 0.169-1.051 0.174-0.544 0.028-1.081-0.126-1.527-0.439-0.193-0.134-0.349-0.313-0.456-0.522s-0.161-0.441-0.156-0.676v-2.149c0.019-0.41-0.118-0.812-0.384-1.125-0.128-0.143-0.287-0.256-0.464-0.33s-0.368-0.108-0.56-0.1c-0.173-0.006-0.345 0.026-0.504 0.096s-0.298 0.174-0.41 0.306c-0.241 0.306-0.365 0.689-0.347 1.079v3.374c0 0.174-0.082 0.265-0.256 0.265h-1.545c-0.036 0.004-0.072 0.001-0.106-0.011s-0.066-0.031-0.091-0.057c-0.026-0.026-0.045-0.057-0.057-0.091s-0.016-0.071-0.011-0.107v-3.301c0.020-0.405-0.107-0.805-0.357-1.125-0.112-0.134-0.251-0.243-0.41-0.317s-0.33-0.113-0.505-0.113c-0.186-0.008-0.372 0.024-0.546 0.094s-0.33 0.174-0.46 0.308c-0.261 0.297-0.396 0.684-0.375 1.079v3.374c0.005 0.036 0.001 0.072-0.011 0.107s-0.031 0.065-0.057 0.091c-0.026 0.026-0.057 0.045-0.091 0.057s-0.071 0.016-0.107 0.011h-1.49c-0.174 0-0.256-0.091-0.256-0.265v-4.306c0.011-0.073 0.005-0.148-0.019-0.218s-0.062-0.134-0.115-0.187c-0.052-0.052-0.116-0.092-0.186-0.115s-0.145-0.030-0.219-0.019h-0.302c-0.201 0-0.302-0.073-0.302-0.219v-1.079c-0.005-0.067 0.014-0.133 0.052-0.188s0.094-0.095 0.158-0.114c0.316-0.115 0.651-0.171 0.987-0.165 0.323-0.028 0.647 0.037 0.935 0.186s0.528 0.376 0.692 0.655c0.308-0.292 0.674-0.518 1.073-0.663s0.825-0.205 1.249-0.178c0.412-0.020 0.823 0.057 1.2 0.226s0.708 0.423 0.967 0.744c0.303-0.329 0.675-0.586 1.089-0.754s0.86-0.241 1.306-0.215c0.399-0.019 0.797 0.046 1.17 0.189s0.712 0.362 0.997 0.643c0.278 0.293 0.493 0.639 0.633 1.018s0.202 0.782 0.181 1.185v1.765c0 0.347 0.155 0.521 0.448 0.521 0.142 0.007 0.283-0.009 0.421-0.046 0.189 0 0.29 0.073 0.302 0.219l0.082 1.143z"></path>
<path d="M6.775 14.98c0.675-2.711 2.237-5.119 4.438-6.839s4.915-2.655 7.708-2.655 5.507 0.935 7.708 2.655c2.201 1.721 3.763 4.128 4.438 6.839h-1.097c-1.851-0.027-3.664 0.526-5.184 1.582-0.088 0.064-0.179 0.122-0.274 0.174h-0.128c-0.095-0.052-0.186-0.11-0.274-0.174-1.534-1.031-3.34-1.582-5.189-1.582s-3.655 0.551-5.189 1.582c-0.088 0.064-0.179 0.122-0.274 0.174h-0.128c-0.095-0.052-0.187-0.11-0.274-0.174-1.52-1.056-3.333-1.609-5.184-1.582h-1.097zM27.995 20.713c0.563-0.439 1.261-0.668 1.975-0.649h1.472v-2.935h-1.472c-1.257-0.015-2.485 0.376-3.502 1.115-0.572 0.422-1.264 0.649-1.975 0.649s-1.403-0.228-1.975-0.649c-1.042-0.726-2.282-1.115-3.552-1.115s-2.51 0.389-3.552 1.115c-0.572 0.422-1.264 0.649-1.975 0.649s-1.403-0.228-1.975-0.649c-1.029-0.749-2.275-1.141-3.547-1.115h-1.518v2.935h1.472c0.714-0.019 1.412 0.211 1.975 0.649 1.040 0.726 2.279 1.115 3.547 1.115s2.507-0.389 3.547-1.115c0.564-0.437 1.261-0.666 1.975-0.649 0.714-0.020 1.412 0.209 1.975 0.649 1.042 0.726 2.282 1.115 3.552 1.115s2.51-0.389 3.552-1.115v0zM27.995 25.961c0.563-0.439 1.261-0.668 1.975-0.649h1.472v-2.935h-1.472c-1.257-0.015-2.485 0.376-3.502 1.115-0.572 0.422-1.264 0.649-1.975 0.649s-1.403-0.228-1.975-0.649c-1.042-0.726-2.282-1.114-3.552-1.114s-2.51 0.389-3.552 1.114c-0.572 0.422-1.264 0.649-1.975 0.649s-1.403-0.228-1.975-0.649c-1.029-0.749-2.275-1.141-3.547-1.115h-1.518v2.935h1.472c0.714-0.019 1.412 0.211 1.975 0.649 1.040 0.726 2.279 1.115 3.547 1.115s2.507-0.389 3.547-1.115c0.564-0.437 1.261-0.666 1.975-0.649 0.714-0.020 1.412 0.209 1.975 0.649 1.042 0.726 2.282 1.115 3.552 1.115s2.51-0.389 3.552-1.115v0z"></path>
</symbol>
<symbol id="icon-logoipsum-logo-6" viewBox="0 0 126 32">
<path d="M14.541 6.259v-4h-12.612v27.482h12.612v-4c-2.584 0-5.061-1.026-6.888-2.853s-2.853-4.304-2.853-6.888 1.026-5.061 2.853-6.888c1.827-1.827 4.305-2.853 6.888-2.853v0z"></path>
<path d="M14.541 6.259v19.482c2.584 0 5.061-1.026 6.888-2.853s2.853-4.304 2.853-6.888c0-2.584-1.026-5.061-2.853-6.888s-4.305-2.853-6.888-2.853v0z"></path>
<path d="M31.36 8.706h2.824v13.6h-2.824v-13.6z"></path>
<path d="M35.765 17.647c0-0.978 0.291-1.935 0.835-2.748s1.318-1.447 2.222-1.82c0.905-0.373 1.899-0.469 2.859-0.276s1.84 0.666 2.529 1.36c0.69 0.694 1.158 1.577 1.346 2.537s0.086 1.955-0.293 2.857c-0.378 0.902-1.016 1.672-1.832 2.212s-1.774 0.825-2.753 0.819c-0.649 0.005-1.292-0.119-1.893-0.366s-1.145-0.611-1.603-1.071c-0.458-0.46-0.819-1.007-1.062-1.609s-0.364-1.246-0.355-1.895zM42.842 17.647c-0.011-0.422-0.146-0.831-0.389-1.176s-0.581-0.612-0.974-0.765c-0.393-0.154-0.822-0.188-1.235-0.099s-0.79 0.298-1.084 0.6c-0.294 0.302-0.493 0.685-0.572 1.099s-0.033 0.843 0.131 1.232c0.164 0.389 0.439 0.721 0.791 0.954s0.764 0.358 1.186 0.358c0.287 0.006 0.573-0.048 0.838-0.158s0.506-0.273 0.705-0.48 0.354-0.452 0.455-0.722c0.1-0.269 0.144-0.556 0.129-0.843h0.019z"></path>
<path d="M56.762 12.988v8.856c0 3.125-2.447 4.452-4.922 4.452-0.873 0.072-1.749-0.102-2.529-0.501s-1.433-1.008-1.885-1.758l2.381-1.374c0.193 0.389 0.5 0.71 0.88 0.92s0.815 0.3 1.247 0.256c0.275 0.034 0.555 0.007 0.818-0.080s0.505-0.23 0.706-0.421c0.202-0.191 0.358-0.423 0.459-0.682s0.144-0.536 0.125-0.812v-0.856c-0.329 0.398-0.745 0.715-1.218 0.924s-0.987 0.305-1.502 0.281c-1.248 0-2.445-0.496-3.328-1.378s-1.378-2.079-1.378-3.328 0.496-2.445 1.378-3.328c0.883-0.883 2.079-1.378 3.328-1.378 0.516-0.024 1.030 0.072 1.502 0.281s0.889 0.525 1.218 0.924v-0.941l2.72-0.056zM54.042 17.459c0.019-0.45-0.098-0.896-0.334-1.28s-0.582-0.688-0.993-0.873c-0.411-0.185-0.867-0.244-1.312-0.168s-0.855 0.284-1.181 0.595-0.55 0.714-0.645 1.154c-0.095 0.441-0.056 0.899 0.112 1.318s0.457 0.777 0.83 1.029c0.373 0.253 0.814 0.388 1.264 0.388 0.294 0.021 0.589-0.020 0.867-0.12s0.531-0.257 0.744-0.461c0.213-0.204 0.381-0.45 0.492-0.723s0.165-0.566 0.156-0.861z"></path>
<path d="M58.353 17.647c0-0.978 0.29-1.933 0.833-2.746s1.316-1.446 2.219-1.82c0.903-0.374 1.897-0.471 2.856-0.28s1.839 0.663 2.53 1.355c0.691 0.692 1.16 1.573 1.35 2.532s0.090 1.953-0.285 2.856c-0.375 0.903-1.010 1.674-1.824 2.216s-1.77 0.83-2.748 0.828c-0.65 0.006-1.295-0.117-1.897-0.363s-1.148-0.61-1.608-1.070c-0.459-0.46-0.822-1.008-1.067-1.61s-0.367-1.247-0.36-1.898zM65.431 17.647c-0.011-0.422-0.147-0.832-0.389-1.177s-0.582-0.612-0.976-0.765-0.824-0.187-1.236-0.098c-0.413 0.090-0.79 0.299-1.084 0.603s-0.492 0.686-0.569 1.102c-0.077 0.415-0.030 0.844 0.135 1.233s0.442 0.72 0.795 0.952c0.353 0.232 0.766 0.355 1.189 0.354 0.287 0.006 0.573-0.048 0.838-0.158s0.506-0.273 0.705-0.48 0.354-0.452 0.455-0.722c0.1-0.269 0.144-0.556 0.129-0.843h0.009z"></path>
<path d="M69.525 10.494c0-0.331 0.098-0.655 0.282-0.931s0.446-0.49 0.752-0.617c0.306-0.127 0.643-0.16 0.968-0.095s0.623 0.224 0.858 0.459c0.234 0.234 0.394 0.533 0.458 0.858s0.031 0.662-0.095 0.968c-0.127 0.306-0.342 0.568-0.617 0.752s-0.599 0.282-0.931 0.282c-0.443-0.005-0.866-0.183-1.179-0.496s-0.491-0.736-0.496-1.179zM69.798 12.988h2.824v9.318h-2.824v-9.318z"></path>
<path d="M84.706 17.647c0.032 0.62-0.060 1.24-0.268 1.824s-0.531 1.122-0.948 1.581c-0.417 0.459-0.921 0.831-1.483 1.095s-1.17 0.414-1.79 0.442c-0.526 0.035-1.053-0.049-1.542-0.246s-0.927-0.502-1.281-0.892v4.602h-2.824v-13.064h2.824v0.875c0.355-0.389 0.793-0.693 1.282-0.888s1.016-0.278 1.541-0.241c0.617 0.028 1.223 0.177 1.783 0.439s1.062 0.632 1.479 1.088c0.417 0.456 0.74 0.99 0.95 1.571s0.305 1.198 0.277 1.815zM81.882 17.647c-0.011-0.437-0.151-0.861-0.402-1.219s-0.602-0.634-1.010-0.793c-0.407-0.159-0.852-0.195-1.28-0.102s-0.818 0.31-1.122 0.623-0.51 0.71-0.59 1.14c-0.080 0.43-0.032 0.874 0.139 1.276s0.457 0.745 0.822 0.986 0.793 0.368 1.231 0.366c0.299 0.013 0.598-0.038 0.877-0.149s0.531-0.279 0.739-0.494 0.37-0.472 0.472-0.753c0.103-0.282 0.145-0.582 0.123-0.881z"></path>
<path d="M93.299 19.511c0 2.146-1.882 3.059-3.878 3.059-0.814 0.073-1.631-0.099-2.346-0.495s-1.294-0.997-1.664-1.726l2.428-1.374c0.096 0.336 0.305 0.628 0.591 0.829s0.632 0.297 0.981 0.272c0.668 0 1.007-0.207 1.007-0.584 0-1.026-4.584-0.48-4.584-3.708 0-2.033 1.713-3.049 3.652-3.049 0.737-0.033 1.469 0.134 2.119 0.484s1.192 0.869 1.571 1.502l-2.428 1.28c-0.107-0.243-0.283-0.449-0.505-0.595s-0.482-0.223-0.747-0.224c-0.489 0-0.781 0.188-0.781 0.518 0 1.073 4.584 0.367 4.584 3.812z"></path>
<path d="M103.529 12.988v9.318h-2.824v-0.875c-0.321 0.387-0.728 0.694-1.189 0.895s-0.963 0.291-1.465 0.262c-1.882 0-3.492-1.346-3.492-3.859v-5.741h2.824v5.318c-0.023 0.222 0.004 0.447 0.077 0.658s0.191 0.404 0.345 0.565c0.155 0.161 0.344 0.287 0.552 0.368s0.431 0.117 0.654 0.103c1.016 0 1.732-0.602 1.732-1.882v-5.129h2.786z"></path>
<path d="M119.529 16.584v5.722h-2.824v-5.478c0-0.941-0.442-1.525-1.336-1.525s-1.459 0.649-1.459 1.751v5.252h-2.824v-5.478c0-0.941-0.442-1.525-1.336-1.525s-1.459 0.649-1.459 1.751v5.252h-2.824v-9.318h2.824v0.856c0.293-0.378 0.674-0.678 1.112-0.872s0.916-0.276 1.392-0.239c0.477-0.025 0.953 0.075 1.381 0.289s0.792 0.536 1.057 0.934c0.311-0.416 0.721-0.746 1.193-0.96s0.991-0.305 1.508-0.264c2.202 0 3.595 1.525 3.595 3.849z"></path>
<path d="M121.901 12.932c1.144 0 2.071-0.927 2.071-2.071s-0.927-2.071-2.071-2.071c-1.144 0-2.071 0.927-2.071 2.071s0.927 2.071 2.071 2.071z"></path>
</symbol>
<symbol id="icon-logoipsum-logo-7" viewBox="0 0 124 32">
<path d="M36.87 10.070h3v12.13h-3v-12.13zM41.060 17.62c0-3 1.84-4.79 4.68-4.79s4.68 1.79 4.68 4.79c0 3-1.8 4.8-4.68 4.8s-4.68-1.75-4.68-4.8zM47.41 17.62c0-1.65-0.65-2.62-1.67-2.62s-1.66 1-1.66 2.62c0 1.62 0.63 2.6 1.66 2.6s1.67-0.92 1.67-2.59v-0.010zM51.55 22.79h2.88c0.137 0.305 0.369 0.557 0.661 0.719s0.628 0.226 0.959 0.181c1.14 0 1.74-0.62 1.74-1.52v-1.68h-0.060c-0.239 0.515-0.627 0.946-1.114 1.239s-1.050 0.432-1.617 0.401c-2.19 0-3.64-1.67-3.64-4.54s1.38-4.68 3.68-4.68c0.585-0.023 1.162 0.133 1.655 0.448s0.879 0.772 1.105 1.312v0-1.67h3v9.1c0 2.19-1.93 3.55-4.78 3.55-2.65 0-4.3-1.19-4.47-2.85v-0.010zM57.8 17.61c0-1.46-0.67-2.38-1.73-2.38s-1.71 0.91-1.71 2.38c0 1.47 0.64 2.3 1.71 2.3s1.73-0.81 1.73-2.29v-0.010zM61.93 17.61c0-3 1.84-4.79 4.68-4.79s4.69 1.79 4.69 4.79c0 3-1.8 4.8-4.69 4.8s-4.68-1.74-4.68-4.79v-0.010zM68.28 17.61c0-1.65-0.65-2.62-1.67-2.62s-1.61 1.010-1.61 2.64c0 1.63 0.63 2.6 1.65 2.6s1.63-0.93 1.63-2.6v-0.020zM72.44 10.82c-0.008-0.303 0.074-0.601 0.236-0.857s0.396-0.458 0.673-0.581 0.584-0.161 0.883-0.108c0.299 0.052 0.575 0.192 0.794 0.401s0.371 0.479 0.437 0.775 0.042 0.604-0.068 0.887c-0.11 0.282-0.301 0.526-0.55 0.699s-0.543 0.269-0.846 0.275c-0.201 0.014-0.402-0.014-0.592-0.082s-0.363-0.174-0.51-0.312c-0.147-0.138-0.263-0.305-0.342-0.49s-0.119-0.385-0.117-0.586v-0.020zM72.44 13.020h3v9.18h-3v-9.18zM86.33 17.61c0 3-1.33 4.71-3.61 4.71-0.585 0.038-1.167-0.105-1.668-0.409s-0.896-0.755-1.132-1.291h-0.060v4.52h-3v-12.14h3v1.64h0.060c0.225-0.545 0.613-1.007 1.111-1.324s1.080-0.473 1.669-0.446c2.3 0.040 3.67 1.76 3.67 4.76l-0.040-0.020zM83.33 17.61c0-1.46-0.67-2.39-1.72-2.39s-1.72 0.94-1.73 2.39c-0.010 1.45 0.68 2.38 1.73 2.38s1.72-0.91 1.72-2.36v-0.020zM91.48 12.81c2.49 0 4 1.18 4.070 3.070h-2.73c0-0.65-0.54-1.060-1.37-1.060s-1.2 0.32-1.2 0.79c0 0.47 0.33 0.62 1 0.76l1.92 0.39c1.83 0.39 2.61 1.13 2.61 2.52 0 1.9-1.73 3.12-4.28 3.12s-4.22-1.22-4.35-3.090h2.89c0.090 0.68 0.63 1.080 1.51 1.080s1.28-0.29 1.28-0.77c0-0.48-0.28-0.58-1-0.73l-1.73-0.37c-1.79-0.37-2.73-1.32-2.73-2.72 0.020-1.8 1.63-2.97 4.11-2.97v-0.020zM105.79 22.18h-2.89v-1.71h-0.060c-0.159 0.574-0.509 1.077-0.993 1.424s-1.072 0.519-1.667 0.486c-0.456 0.026-0.912-0.046-1.337-0.212s-0.811-0.42-1.129-0.747c-0.319-0.327-0.563-0.719-0.717-1.148s-0.214-0.887-0.176-1.342v-5.93h3v5.24c0 1.090 0.56 1.67 1.49 1.67 0.218 0 0.434-0.046 0.633-0.135 0.198-0.090 0.376-0.221 0.52-0.385s0.251-0.357 0.314-0.565c0.063-0.209 0.082-0.428 0.053-0.645v-5.18h3l-0.040 9.18zM107.24 13h2.9v1.77h0.060c0.159-0.566 0.502-1.064 0.974-1.415s1.048-0.536 1.636-0.525c0.599-0.048 1.193 0.131 1.666 0.502 0.472 0.371 0.788 0.905 0.884 1.498h0.060c0.181-0.599 0.557-1.121 1.068-1.483s1.127-0.544 1.752-0.517c0.408-0.014 0.814 0.059 1.192 0.212 0.379 0.153 0.72 0.385 1.003 0.679s0.501 0.645 0.64 1.029c0.138 0.384 0.195 0.793 0.165 1.2v6.25h-3v-5.45c0-1-0.45-1.46-1.29-1.46-0.187-0.002-0.373 0.037-0.544 0.113s-0.324 0.188-0.448 0.329c-0.124 0.14-0.217 0.305-0.272 0.485s-0.070 0.368-0.046 0.554v5.43h-2.85v-5.49c0-0.92-0.45-1.42-1.27-1.42-0.189 0-0.377 0.040-0.549 0.118s-0.328 0.191-0.453 0.333c-0.126 0.142-0.22 0.309-0.277 0.489-0.056 0.181-0.074 0.372-0.051 0.56v5.41h-3l0.050-9.2z"></path>
<path d="M28.48 10.62c-0.509-1.164-1.182-2.248-2-3.22-1.209-1.48-2.717-2.687-4.425-3.541s-3.579-1.338-5.488-1.418c-1.909-0.080-3.813 0.245-5.587 0.954s-3.378 1.786-4.706 3.159-2.35 3.013-2.999 4.81c-0.649 1.797-0.91 3.711-0.766 5.616s0.69 3.758 1.602 5.437c0.912 1.679 2.169 3.146 3.688 4.304 0.975 0.758 2.052 1.374 3.2 1.83 1.609 0.659 3.331 0.999 5.070 1 3.589-0.008 7.029-1.439 9.566-3.979s3.962-5.982 3.965-9.571c0.003-1.851-0.379-3.683-1.12-5.38v0zM16.060 5.19c1.562-0 3.104 0.341 4.52 1v0c-0.345 0.149-0.708 0.253-1.080 0.31-1.223 0.177-2.357 0.745-3.231 1.619s-1.442 2.007-1.619 3.231c-0.078 0.686-0.39 1.324-0.883 1.807s-1.139 0.78-1.826 0.843c-1.223 0.177-2.357 0.745-3.231 1.619s-1.442 2.007-1.619 3.231c-0.060 0.652-0.338 1.265-0.79 1.74v0c-0.779-1.647-1.129-3.464-1.018-5.282s0.682-3.579 1.657-5.118c0.975-1.539 2.324-2.806 3.92-3.684s3.389-1.337 5.211-1.336l-0.010 0.020zM7.79 23c0.12-0.11 0.24-0.21 0.36-0.33 0.89-0.863 1.461-2.001 1.62-3.23 0.065-0.691 0.373-1.336 0.87-1.82 0.478-0.498 1.122-0.804 1.81-0.86 1.223-0.177 2.357-0.745 3.231-1.619s1.442-2.007 1.619-3.231c0.043-0.723 0.353-1.403 0.87-1.91 0.49-0.488 1.14-0.783 1.83-0.83 1.124-0.155 2.172-0.654 3-1.43 0.943 0.782 1.741 1.723 2.36 2.78-0.038 0.051-0.082 0.098-0.13 0.14-0.477 0.502-1.12 0.815-1.81 0.88-1.225 0.174-2.36 0.741-3.234 1.616s-1.442 2.010-1.616 3.234c-0.070 0.688-0.377 1.331-0.867 1.82s-1.134 0.792-1.823 0.86c-1.227 0.176-2.364 0.743-3.244 1.616s-1.453 2.008-1.636 3.234c-0.054 0.489-0.222 0.958-0.49 1.37-1.026-0.609-1.945-1.383-2.72-2.29v0zM16.060 26.86c-1.015 0.001-2.025-0.14-3-0.42 0.334-0.622 0.551-1.3 0.64-2 0.070-0.687 0.375-1.329 0.863-1.817s1.13-0.793 1.817-0.863c1.225-0.175 2.361-0.742 3.237-1.616s1.445-2.009 1.623-3.233c0.070-0.687 0.375-1.329 0.863-1.817s1.13-0.793 1.817-0.863c0.922-0.12 1.801-0.463 2.56-1 0.422 1.598 0.471 3.271 0.146 4.891s-1.018 3.144-2.024 4.456c-1.006 1.311-2.299 2.374-3.78 3.108s-3.11 1.119-4.762 1.125v0.050z"></path>
</symbol>
<symbol id="icon-logoipsum-logo-8" viewBox="0 0 149 32">
<path d="M23.914 14.262c-0.404 0.407-0.714 0.898-0.907 1.438s-0.264 1.116-0.209 1.687l-0.019-0.019c0.057 0.672-0.034 1.348-0.265 1.981s-0.599 1.208-1.075 1.685c-0.477 0.477-1.052 0.844-1.685 1.075s-1.309 0.322-1.981 0.265l0.019 0.019c-0.804-0.075-1.611 0.1-2.311 0.501s-1.261 1.008-1.604 1.738-0.452 1.549-0.313 2.344c0.139 0.795 0.521 1.528 1.092 2.098s1.304 0.951 2.099 1.090c0.795 0.139 1.614 0.029 2.344-0.315s1.337-0.904 1.737-1.605 0.574-1.508 0.499-2.312l0.020 0.019c-0.057-0.672 0.034-1.348 0.265-1.981s0.599-1.208 1.075-1.685c0.477-0.477 1.052-0.844 1.685-1.075s1.309-0.322 1.981-0.265l-0.020-0.019c0.656 0.059 1.317-0.049 1.921-0.313s1.131-0.677 1.533-1.199 0.666-1.138 0.766-1.789c0.101-0.651 0.036-1.318-0.19-1.937s-0.603-1.172-1.099-1.606-1.093-0.737-1.737-0.879c-0.644-0.142-1.313-0.119-1.945 0.066s-1.208 0.527-1.673 0.994h-0.003z"></path>
<path d="M16.045 19.878l-0.020-0.019c0.571 0.058 1.148-0.013 1.688-0.205s1.032-0.503 1.438-0.909c0.406-0.406 0.717-0.897 0.91-1.437s0.264-1.117 0.206-1.688l0.020 0.019c-0.057-0.672 0.034-1.348 0.265-1.981s0.599-1.208 1.075-1.685c0.477-0.477 1.052-0.844 1.685-1.075s1.309-0.322 1.981-0.265l-0.020-0.019c0.804 0.076 1.611-0.099 2.312-0.499s1.262-1.007 1.605-1.738 0.453-1.549 0.314-2.344c-0.139-0.795-0.52-1.528-1.091-2.099s-1.304-0.952-2.099-1.091-1.614-0.029-2.344 0.314c-0.731 0.343-1.337 0.904-1.738 1.605s-0.575 1.508-0.499 2.312l-0.019-0.020c0.057 0.672-0.034 1.348-0.265 1.981s-0.599 1.208-1.075 1.685c-0.477 0.477-1.052 0.844-1.685 1.075s-1.31 0.322-1.981 0.265l0.019 0.020c-0.571-0.057-1.148 0.013-1.688 0.205s-1.032 0.503-1.438 0.909-0.717 0.897-0.91 1.437c-0.193 0.54-0.263 1.117-0.206 1.688l-0.019-0.019c0.057 0.672-0.034 1.348-0.266 1.981s-0.599 1.208-1.075 1.685c-0.477 0.477-1.052 0.844-1.685 1.075s-1.309 0.322-1.981 0.266l0.019 0.019c-0.804-0.076-1.611 0.099-2.312 0.499s-1.261 1.007-1.605 1.738c-0.344 0.731-0.453 1.549-0.314 2.344s0.52 1.528 1.091 2.099c0.571 0.571 1.304 0.952 2.099 1.091s1.614 0.029 2.344-0.314c0.731-0.343 1.337-0.904 1.738-1.605s0.575-1.508 0.499-2.312l0.020 0.019c-0.057-0.672 0.034-1.348 0.265-1.981s0.598-1.208 1.075-1.685c0.477-0.477 1.052-0.844 1.685-1.075s1.309-0.322 1.981-0.265v0z"></path>
<path d="M8.896 17.738c0.404-0.407 0.714-0.898 0.906-1.438s0.264-1.116 0.208-1.687l0.020 0.019c-0.057-0.672 0.034-1.348 0.266-1.982s0.599-1.209 1.076-1.685c0.477-0.477 1.052-0.844 1.686-1.075s1.31-0.322 1.982-0.265l-0.020-0.019c0.803 0.075 1.611-0.099 2.311-0.499s1.261-1.007 1.604-1.737c0.343-0.73 0.453-1.549 0.314-2.344s-0.52-1.528-1.090-2.098c-0.571-0.571-1.303-0.951-2.098-1.090s-1.613-0.029-2.344 0.314c-0.73 0.343-1.337 0.903-1.737 1.604s-0.575 1.508-0.499 2.311l-0.019-0.019c0.057 0.672-0.034 1.348-0.265 1.981s-0.598 1.208-1.075 1.685c-0.477 0.477-1.052 0.844-1.685 1.075s-1.309 0.322-1.981 0.265l0.019 0.019c-0.656-0.059-1.317 0.049-1.921 0.313s-1.131 0.677-1.533 1.199c-0.402 0.522-0.665 1.138-0.766 1.789s-0.035 1.318 0.19 1.937c0.225 0.619 0.603 1.172 1.099 1.606s1.093 0.737 1.737 0.879c0.644 0.142 1.313 0.119 1.945-0.066s1.208-0.527 1.673-0.994h-0.002z"></path>
<path d="M41.938 7.099h3.168v15.417h-3.168v-15.417z"></path>
<path d="M46.9 17.236c-0.004-1.108 0.32-2.192 0.932-3.116s1.485-1.644 2.507-2.071c1.022-0.427 2.148-0.541 3.235-0.328s2.087 0.745 2.871 1.527c0.785 0.782 1.32 1.779 1.538 2.865s0.108 2.213-0.315 3.237c-0.423 1.024-1.14 1.899-2.061 2.515s-2.004 0.945-3.112 0.945c-0.735 0.008-1.465-0.13-2.146-0.407s-1.301-0.687-1.822-1.206c-0.521-0.519-0.934-1.137-1.213-1.817s-0.421-1.409-0.415-2.145zM54.926 17.236c-0.013-0.478-0.167-0.941-0.442-1.331s-0.659-0.692-1.104-0.865c-0.445-0.174-0.931-0.212-1.398-0.111s-0.894 0.338-1.227 0.68c-0.333 0.342-0.558 0.775-0.646 1.245s-0.036 0.955 0.15 1.395 0.497 0.816 0.895 1.080c0.398 0.264 0.865 0.405 1.343 0.405 0.327 0.009 0.653-0.050 0.956-0.174s0.578-0.308 0.806-0.543c0.228-0.235 0.405-0.514 0.52-0.82s0.165-0.633 0.147-0.96z"></path>
<path d="M70.72 11.956v10.027c0 3.548-2.767 5.047-5.575 5.047-0.989 0.074-1.979-0.126-2.862-0.577s-1.624-1.138-2.143-1.983l2.703-1.563c0.218 0.441 0.565 0.804 0.996 1.042s0.923 0.338 1.412 0.288c0.313 0.043 0.631 0.016 0.931-0.081s0.575-0.259 0.804-0.476c0.229-0.217 0.406-0.483 0.519-0.777s0.157-0.611 0.131-0.925v-0.965c-0.371 0.454-0.843 0.814-1.379 1.053s-1.119 0.348-1.705 0.32c-1.393-0.044-2.715-0.628-3.685-1.629s-1.512-2.34-1.512-3.734 0.542-2.733 1.512-3.734c0.97-1.001 2.292-1.585 3.685-1.629 0.586-0.028 1.169 0.082 1.705 0.32s1.008 0.599 1.379 1.053v-1.077l3.084 0.002zM67.637 17.024c0.021-0.511-0.111-1.016-0.379-1.451s-0.661-0.78-1.126-0.99c-0.466-0.21-0.984-0.276-1.487-0.189s-0.97 0.322-1.338 0.676c-0.369 0.354-0.623 0.81-0.73 1.31s-0.062 1.020 0.129 1.494c0.191 0.474 0.52 0.88 0.943 1.166s0.923 0.438 1.434 0.437c0.333 0.023 0.667-0.023 0.981-0.137s0.6-0.292 0.841-0.523c0.241-0.231 0.43-0.51 0.557-0.819s0.187-0.641 0.177-0.974z"></path>
<path d="M72.514 17.236c-0.004-1.108 0.32-2.192 0.932-3.116s1.485-1.644 2.507-2.071c1.022-0.427 2.148-0.541 3.235-0.328s2.087 0.745 2.871 1.527c0.785 0.782 1.32 1.779 1.538 2.865s0.108 2.213-0.315 3.237c-0.423 1.024-1.14 1.899-2.061 2.515s-2.004 0.945-3.112 0.945c-0.735 0.008-1.465-0.13-2.146-0.407s-1.301-0.687-1.822-1.206c-0.521-0.519-0.934-1.137-1.213-1.817s-0.421-1.409-0.415-2.145zM80.54 17.236c-0.013-0.478-0.167-0.941-0.442-1.331s-0.659-0.692-1.104-0.865c-0.445-0.174-0.932-0.212-1.398-0.111s-0.894 0.338-1.227 0.68c-0.333 0.342-0.558 0.775-0.646 1.245s-0.036 0.955 0.15 1.395 0.497 0.816 0.895 1.080c0.398 0.264 0.865 0.405 1.343 0.405 0.327 0.009 0.653-0.050 0.956-0.174s0.578-0.308 0.806-0.543c0.228-0.235 0.405-0.514 0.52-0.82s0.165-0.633 0.147-0.96z"></path>
<path d="M85.185 9.126c0-0.376 0.111-0.743 0.32-1.056s0.506-0.556 0.853-0.7c0.347-0.144 0.73-0.181 1.098-0.108s0.707 0.254 0.973 0.52 0.447 0.605 0.52 0.973c0.073 0.369 0.036 0.751-0.108 1.098s-0.388 0.644-0.7 0.853c-0.313 0.209-0.68 0.32-1.056 0.32-0.502-0.005-0.983-0.207-1.339-0.562s-0.557-0.836-0.562-1.339zM85.505 11.956h3.169v10.56h-3.173l0.004-10.56z"></path>
<path d="M102.353 17.236c0.037 0.698-0.065 1.396-0.299 2.055s-0.596 1.264-1.065 1.782c-0.469 0.518-1.036 0.938-1.668 1.236s-1.317 0.468-2.015 0.501c-0.587 0.032-1.174-0.067-1.718-0.29s-1.032-0.564-1.428-0.999v5.217h-3.168v-14.783h3.168v0.992c0.396-0.434 0.884-0.775 1.428-0.998s1.131-0.322 1.718-0.29c0.698 0.033 1.383 0.203 2.015 0.501s1.199 0.719 1.668 1.237c0.469 0.518 0.831 1.124 1.065 1.783s0.336 1.357 0.299 2.055zM99.185 17.236c-0.012-0.494-0.17-0.974-0.454-1.379s-0.68-0.717-1.14-0.898c-0.46-0.181-0.964-0.221-1.447-0.117s-0.925 0.348-1.27 0.702c-0.345 0.354-0.578 0.802-0.67 1.288s-0.038 0.988 0.154 1.443c0.192 0.456 0.514 0.844 0.926 1.118s0.895 0.419 1.39 0.419c0.339 0.015 0.678-0.042 0.994-0.167s0.602-0.315 0.839-0.558c0.237-0.243 0.42-0.534 0.537-0.853s0.165-0.659 0.142-0.998z"></path>
<path d="M112.129 19.347c0 2.429-2.111 3.463-4.391 3.463-0.922 0.083-1.847-0.111-2.656-0.559s-1.466-1.129-1.885-1.954l2.745-1.563c0.111 0.381 0.35 0.713 0.676 0.94s0.721 0.335 1.116 0.306c0.759 0 1.14-0.233 1.14-0.654 0-1.163-5.196-0.549-5.196-4.203 0-2.303 1.943-3.463 4.14-3.463 0.826-0.026 1.643 0.17 2.367 0.567s1.329 0.982 1.75 1.692l-2.703 1.457c-0.118-0.277-0.316-0.512-0.567-0.677s-0.546-0.253-0.847-0.252c-0.549 0-0.887 0.213-0.887 0.591 0.004 1.204 5.199 0.401 5.199 4.308z"></path>
<path d="M123.701 11.956v10.56h-3.168v-0.993c-0.366 0.438-0.83 0.783-1.355 1.007s-1.094 0.32-1.664 0.281c-2.133 0-3.947-1.52-3.947-4.373v-6.482h3.168v6.018c-0.027 0.252 0.002 0.506 0.084 0.745 0.081 0.239 0.214 0.458 0.389 0.641s0.387 0.325 0.623 0.417c0.235 0.092 0.487 0.132 0.74 0.117 1.162 0 1.964-0.675 1.964-2.175v-5.76l3.165-0.003z"></path>
<path d="M141.867 16.032v6.483h-3.168v-6.209c0-1.056-0.507-1.731-1.52-1.731-1.056 0-1.648 0.739-1.648 1.985v5.955h-3.167v-6.209c0-1.056-0.507-1.731-1.521-1.731-1.056 0-1.647 0.739-1.647 1.985v5.955h-3.168v-10.56h3.168v0.971c0.329-0.431 0.759-0.772 1.253-0.993 0.495-0.221 1.037-0.315 1.577-0.273 0.542-0.027 1.082 0.088 1.567 0.332 0.484 0.244 0.897 0.61 1.199 1.061 0.351-0.472 0.816-0.848 1.351-1.091s1.124-0.347 1.711-0.302c2.425 0.001 4.013 1.732 4.013 4.372z"></path>
<path d="M144.546 11.891c1.298 0 2.351-1.053 2.351-2.351s-1.053-2.351-2.351-2.351-2.351 1.053-2.351 2.351c0 1.298 1.053 2.351 2.351 2.351z"></path>
</symbol>
</defs>
</svg>
